Coordinates
version=1
nRows=13
nColumns=22
inDegrees=yes

Units are S.I. units (second, meters, Newtons, ...)
If the header above contains a line with 'inDegrees', this indicates whether rotational values are in degrees (yes) or radians (no).

endheader
time	pelvis_tilt	pelvis_list	pelvis_rotation	pelvis_tx	pelvis_ty	pelvis_tz	hip_flexion_r	hip_adduction_r	hip_rotation_r	knee_angle_r	ankle_angle_r	subtalar_angle_r	hip_flexion_l	hip_adduction_l	hip_rotation_l	knee_angle_l	ankle_angle_l	subtalar_angle_l	lumbar_extension	lumbar_bending	lumbar_rotation
      0.01000000	     -8.27484306	      3.84649899	    -38.65620643	     -1.45161126	      0.88431063	     -0.37691647	      9.87029208	     -1.89938488	      2.82442731	     -8.53145922	     12.63088289	      2.28188040	     10.83962953	     -5.73257915	     -5.79530822	    -16.67977265	     16.29203039	      2.89193609	      1.96396955	     -0.19496499	     12.90126995
      0.02000000	     -8.27629712	      3.85298369	    -38.66044430	     -1.45154833	      0.88431485	     -0.37687896	      9.87164997	     -1.90450972	      2.82214666	     -8.53138200	     12.63044293	      2.28171888	     10.83877077	     -5.72699621	     -5.80623912	    -16.67812303	     16.28286047	      2.89287306	      1.96985389	     -0.19346668	     12.86988743
      0.03000000	     -8.28124757	      3.85921321	    -38.66234190	     -1.45147662	      0.88431201	     -0.37683322	      9.87172215	     -1.90762679	      2.82439913	     -8.52609718	     12.63301084	      2.28248854	     10.84078546	     -5.72387320	     -5.81205495	    -16.67691204	     16.27266049	      2.89387339	      1.97935879	     -0.18878856	     12.82617967
      0.04000000	     -8.28864293	      3.86538749	    -38.66378112	     -1.45140162	      0.88430612	     -0.37677677	      9.87257397	     -1.90818212	      2.82623880	     -8.51862039	     12.63483710	      2.28397852	     10.84312776	     -5.72255624	     -5.81644625	    -16.67503591	     16.26419286	      2.89495252	      1.99130761	     -0.18205202	     12.77215406
      0.05000000	     -8.29818230	      3.87108218	    -38.66238279	     -1.45131883	      0.88429465	     -0.37670786	      9.87273466	     -1.90700175	      2.82748056	     -8.51061309	     12.63540815	      2.28634995	     10.84602883	     -5.72366869	     -5.81972171	    -16.67217543	     16.25784142	      2.89640913	      2.00779649	     -0.17344018	     12.70775044
      0.06000000	     -8.30843205	      3.87676177	    -38.66706980	     -1.45125675	      0.88427891	     -0.37663423	      9.87586937	     -1.90425148	      2.82860684	     -8.50159192	     12.63545515	      2.28900721	     10.84748123	     -5.72690137	     -5.82395075	    -16.66629823	     16.25567405	      2.89794139	      2.02172728	     -0.16432721	     12.64168455
      0.07000000	     -8.31838579	      3.88207222	    -38.67447806	     -1.45119832	      0.88426068	     -0.37654555	      9.87844887	     -1.89992233	      2.83121137	     -8.49304224	     12.63531950	      2.29200285	     10.84691766	     -5.73143965	     -5.82982615	    -16.65954496	     16.25601197	      2.89973182	      2.03817297	     -0.15524191	     12.57619975
      0.08000000	     -8.32858673	      3.88728140	    -38.68373192	     -1.45114247	      0.88423808	     -0.37644311	      9.88130063	     -1.89434029	      2.83685119	     -8.48474000	     12.63514127	      2.29547546	     10.84398507	     -5.73771468	     -5.83943751	    -16.65117859	     16.25844071	      2.90194041	      2.05751818	     -0.14611700	     12.51105529
      0.09000000	     -8.33792953	      3.89239637	    -38.69860234	     -1.45109852	      0.88421463	     -0.37632943	      9.88475127	     -1.88768570	      2.84556710	     -8.47756417	     12.63526081	      2.29911839	     10.83887653	     -5.74505058	     -5.85299707	    -16.64156091	     16.26227494	      2.90443953	      2.07812346	     -0.13735736	     12.45270293
      0.10000000	     -8.34674673	      3.89753942	    -38.71957842	     -1.45106252	      0.88419197	     -0.37620365	      9.88935379	     -1.87994586	      2.85885354	     -8.47229401	     12.63598349	      2.30290983	     10.83079664	     -5.75380762	     -5.87229424	    -16.62967097	     16.26704968	      2.90721867	      2.10047319	     -0.12880352	     12.40092473
      0.11000000	     -8.35570190	      3.90264400	    -38.74683779	     -1.45103576	      0.88417096	     -0.37606378	      9.89535625	     -1.87025558	      2.87924384	     -8.46932831	     12.63748436	      2.30715656	     10.81978677	     -5.76428757	     -5.90021782	    -16.61368390	     16.27273659	      2.91066014	      2.12559875	     -0.12005640	     12.35536299
      0.12000000	     -8.36515081	      3.90768878	    -38.78212386	     -1.45100783	      0.88414821	     -0.37589501	      9.90245974	     -1.85806645	      2.91344602	     -8.46981824	     12.63928439	      2.31289018	     10.80425739	     -5.77836061	     -5.94129443	    -16.59578599	     16.27922221	      2.91658618	      2.15612096	     -0.11233134	     12.32449168
      0.13000000	     -8.37359778	      3.91621175	    -38.85536327	     -1.45104711	      0.88412589	     -0.37568642	      9.91955244	     -1.84025948	      2.99366504	     -8.47146725	     12.64128846	      2.32515024	     10.78427259	     -5.79830265	     -6.02414257	    -16.57708364	     16.28749838	      2.93612785	      2.18375627	     -0.10744799	     12.34289580
